<svg width="40" height="29" viewBox="0 0 40 29" fill="none" xmlns="http://www.w3.org/2000/svg">
<path d="M22.8274 27.2045C21.7991 28.0258 19.0468 29 15.4628 29C6.32876 29 4.34772 23.9703 4.34772 21.0363V12.8801H0.756125C0.340256 12.8801 0 12.6252 0 12.3137V8.46211C0 8.0543 0.340256 7.6918 0.854421 7.55586C5.5424 6.32109 7.01684 3.25117 7.22855 0.923242C7.28904 0.300195 7.72003 0 8.44591 0H13.8068C14.2227 0 14.563 0.254883 14.563 0.566406V7.09141H20.8388C21.2547 7.09141 21.5949 7.34063 21.5949 7.65215V12.2797C21.5949 12.5912 21.2547 12.8461 20.8388 12.8461H14.5327V20.3906C14.5327 22.3277 16.3247 23.4266 19.6744 22.4184C20.0373 22.3107 20.3549 22.2371 20.6346 22.2938C20.8993 22.3447 21.0732 22.4863 21.1942 22.7412L22.8577 26.3832C22.9938 26.6664 23.1072 26.9836 22.8274 27.2045Z" fill="black"/>
<path d="M15.788 17.456C15.788 17.152 15.844 16.848 15.956 16.544C16.068 16.232 16.216 15.948 16.4 15.692C16.584 15.436 16.876 15.228 17.276 15.068C17.676 14.9 18.032 14.816 18.344 14.816C18.664 14.816 18.988 14.86 19.316 14.948C19.652 15.036 19.884 15.172 20.012 15.356C20.308 15.772 20.456 16.18 20.456 16.58C20.456 16.796 20.408 16.98 20.312 17.132C20.224 17.284 20.096 17.448 19.928 17.624C19.792 17.768 19.576 17.864 19.28 17.912C18.992 17.96 18.704 17.984 18.416 17.984C18.232 17.984 18.008 17.968 17.744 17.936C17.48 17.896 17.224 17.848 16.976 17.792C16.992 17.952 17.032 18.108 17.096 18.26C17.16 18.412 17.236 18.528 17.324 18.608C17.484 18.76 17.648 18.856 17.816 18.896C17.992 18.936 18.216 18.956 18.488 18.956C18.776 18.956 19.044 18.908 19.292 18.812C19.492 18.74 19.656 18.704 19.784 18.704C19.936 18.704 20.052 18.752 20.132 18.848C20.212 18.936 20.252 19.052 20.252 19.196C20.252 19.396 20.136 19.56 19.904 19.688C19.672 19.816 19.404 19.912 19.1 19.976C18.804 20.032 18.564 20.06 18.38 20.06C18.004 20.06 17.64 19.992 17.288 19.856C16.936 19.72 16.644 19.528 16.412 19.28C16.22 19.056 16.068 18.788 15.956 18.476C15.844 18.156 15.788 17.816 15.788 17.456ZM18.404 15.836C18.228 15.836 18.052 15.872 17.876 15.944C17.7 16.008 17.556 16.1 17.444 16.22C17.3 16.372 17.2 16.496 17.144 16.592C17.096 16.68 17.064 16.804 17.048 16.964C17.248 17.028 17.664 17.06 18.296 17.06C18.64 17.06 18.904 17.008 19.088 16.904C19.28 16.8 19.376 16.664 19.376 16.496C19.376 16.328 19.272 16.176 19.064 16.04C18.856 15.904 18.636 15.836 18.404 15.836ZM23.3788 19.52C23.3788 19.656 23.3268 19.776 23.2228 19.88C23.1188 19.984 22.9908 20.036 22.8388 20.036C22.5988 20.036 22.4228 19.992 22.3108 19.904C22.1988 19.808 22.1428 19.636 22.1428 19.388C22.1428 19.092 22.1348 18.704 22.1188 18.224C22.1028 17.824 22.0948 17.488 22.0948 17.216C22.0948 17.088 22.1028 16.92 22.1188 16.712C22.1348 16.52 22.1428 16.376 22.1428 16.28C22.1188 16.128 22.0588 16.004 21.9628 15.908C21.8668 15.804 21.7428 15.752 21.5908 15.752C21.5188 15.752 21.4588 15.72 21.4108 15.656C21.3628 15.584 21.3388 15.512 21.3388 15.44C21.3388 15.256 21.4108 15.116 21.5548 15.02C21.7068 14.924 21.8868 14.876 22.0948 14.876C22.5268 14.876 22.8268 15.132 22.9948 15.644C23.2028 15.404 23.4388 15.212 23.7028 15.068C23.9748 14.916 24.2348 14.84 24.4828 14.84C24.7788 14.84 25.0468 14.92 25.2868 15.08C25.5348 15.24 25.6588 15.456 25.6588 15.728C25.6588 15.88 25.5908 16.036 25.4548 16.196C25.3268 16.356 25.1948 16.436 25.0588 16.436C24.9868 16.436 24.9228 16.42 24.8668 16.388C24.8188 16.348 24.7588 16.292 24.6868 16.22C24.6068 16.14 24.5388 16.084 24.4828 16.052C24.4268 16.012 24.3628 15.992 24.2908 15.992C24.1628 15.992 24.0428 16.012 23.9308 16.052C23.8188 16.092 23.7428 16.14 23.7028 16.196C23.5748 16.396 23.4788 16.576 23.4148 16.736C23.3588 16.896 23.3308 17.068 23.3308 17.252C23.3308 17.388 23.3268 17.496 23.3188 17.576L23.3068 18.26C23.3068 18.364 23.3108 18.48 23.3188 18.608C23.3268 18.736 23.3348 18.832 23.3428 18.896C23.3668 19.112 23.3788 19.32 23.3788 19.52ZM26.4203 15.788C26.2123 15.644 26.1083 15.492 26.1083 15.332C26.1083 15.22 26.1563 15.116 26.2523 15.02C26.3483 14.924 26.4923 14.876 26.6843 14.876C26.9083 14.876 27.1083 14.936 27.2843 15.056C27.4683 15.168 27.5963 15.332 27.6683 15.548C27.8523 15.332 28.0603 15.16 28.2923 15.032C28.5323 14.904 28.7763 14.84 29.0243 14.84C29.3203 14.84 29.5883 14.92 29.8283 15.08C30.0683 15.24 30.1883 15.456 30.1883 15.728C30.1883 15.88 30.1203 16.036 29.9843 16.196C29.8563 16.356 29.7243 16.436 29.5883 16.436C29.5163 16.436 29.4523 16.42 29.3963 16.388C29.3483 16.348 29.2883 16.292 29.2163 16.22C29.1363 16.14 29.0683 16.084 29.0123 16.052C28.9563 16.012 28.8923 15.992 28.8203 15.992C28.6923 15.992 28.5723 16.012 28.4603 16.052C28.3483 16.092 28.2723 16.14 28.2323 16.196C28.1043 16.396 28.0083 16.576 27.9443 16.736C27.8883 16.896 27.8603 17.068 27.8603 17.252C27.8603 17.388 27.8563 17.496 27.8483 17.576L27.8363 18.26C27.8363 18.364 27.8403 18.48 27.8483 18.608C27.8563 18.736 27.8643 18.832 27.8723 18.896C27.8963 19.112 27.9083 19.32 27.9083 19.52C27.9083 19.656 27.8563 19.776 27.7523 19.88C27.6483 19.984 27.5203 20.036 27.3683 20.036C27.1283 20.036 26.9523 19.992 26.8403 19.904C26.7283 19.808 26.6723 19.636 26.6723 19.388L26.6603 18.62C26.6523 18.468 26.6483 18.252 26.6483 17.972L26.6603 17.18C26.6763 16.796 26.6843 16.484 26.6843 16.244C26.6843 16.156 26.6643 16.076 26.6243 16.004C26.5923 15.932 26.5243 15.86 26.4203 15.788ZM32.2398 18.14C32.2398 18.444 32.2838 18.68 32.3718 18.848C32.4678 19.008 32.5878 19.088 32.7318 19.088C32.8118 19.088 32.8878 19.084 32.9598 19.076C33.0318 19.06 33.1038 19.052 33.1758 19.052C33.2558 19.052 33.3238 19.092 33.3798 19.172C33.4438 19.252 33.4758 19.34 33.4758 19.436C33.4758 19.628 33.3838 19.78 33.1998 19.892C33.0238 19.996 32.7838 20.048 32.4798 20.048C32.2638 20.048 32.0438 19.984 31.8198 19.856C31.6038 19.72 31.4238 19.512 31.2798 19.232C31.1358 18.944 31.0638 18.588 31.0638 18.164C31.0638 17.252 31.0798 16.48 31.1118 15.848C31.1518 15.096 31.1718 14.148 31.1718 13.004C31.1718 12.644 31.1918 12.392 31.2318 12.248C31.2798 12.136 31.3558 12.052 31.4598 11.996C31.5718 11.932 31.6878 11.9 31.8078 11.9C31.9278 11.9 32.0318 11.92 32.1198 11.96C32.2158 12 32.2798 12.064 32.3118 12.152C32.3438 12.248 32.3638 12.344 32.3718 12.44C32.3878 12.528 32.3958 12.656 32.3958 12.824C32.3958 13.152 32.3838 13.468 32.3598 13.772C32.3438 14.14 32.3358 14.408 32.3358 14.576C32.2718 15.984 32.2398 17.172 32.2398 18.14ZM39.0222 16.148C39.0862 16.26 39.1382 16.424 39.1782 16.64C39.2182 16.848 39.2382 17.036 39.2382 17.204C39.2382 17.42 39.2142 17.66 39.1662 17.924C39.1182 18.188 39.0742 18.392 39.0342 18.536C38.4822 19.544 37.6662 20.048 36.5862 20.048C36.1862 20.048 35.7782 19.916 35.3622 19.652C34.9462 19.388 34.6582 19.084 34.4982 18.74C34.2822 18.06 34.1742 17.624 34.1742 17.432C34.1742 17.112 34.2422 16.772 34.3782 16.412C34.5222 16.052 34.7022 15.74 34.9182 15.476C35.0622 15.292 35.3102 15.136 35.6622 15.008C36.0142 14.872 36.3342 14.804 36.6222 14.804C37.1822 14.804 37.6542 14.912 38.0382 15.128C38.4302 15.336 38.7582 15.676 39.0222 16.148ZM37.9782 18.08C38.0182 18 38.0382 17.732 38.0382 17.276C38.0382 17.044 37.9942 16.816 37.9062 16.592C37.8262 16.368 37.7062 16.176 37.5462 16.016C37.5302 16 37.4862 15.976 37.4142 15.944C37.3422 15.904 37.2422 15.868 37.1142 15.836C36.9942 15.796 36.8542 15.776 36.6942 15.776C36.2462 15.776 35.9182 15.956 35.7102 16.316C35.5022 16.676 35.3982 17.084 35.3982 17.54C35.3982 17.612 35.4222 17.76 35.4702 17.984C35.5182 18.208 35.5542 18.352 35.5782 18.416C35.6422 18.528 35.7702 18.66 35.9622 18.812C36.1622 18.956 36.3782 19.028 36.6102 19.028C36.9702 19.028 37.2542 18.944 37.4622 18.776C37.6782 18.6 37.8502 18.368 37.9782 18.08Z" fill="black"/>
</svg>
